<?xml version="1.0" encoding="utf-8"?><svg xmlns="http://www.w3.org/2000/svg" xmlns:xlink="http://www.w3.org/1999/xlink"><symbol id="johnson-logo" viewBox="0 0 436.3 106.54"><defs><style>.acls-1{fill:#6b8ac2}.acls-1,.acls-2,.acls-3,.acls-4,.acls-5,.acls-6,.acls-7{fill-rule:evenodd}.acls-2{fill:#e38738}.acls-3{fill:#73bd6b}.acls-4{fill:#0d9c4f}.acls-5{fill:#e38536}.acls-6{fill:#f2ad2b}</style></defs><title>johnson-logo</title><path class="acls-1" d="M21.51 20.58c7.36.78 11.23 1.87 18.9.43l1.12-.26.24-.07H42a12.43 12.43 0 0 0 1.25-.5c6.48-3 11.59-6.75 17.19.5l.2.26c1.33 1.79 2.28 5 2.92 8.92q-1.52 1-3.13 1.87l-.2.11-.15.09-.09.05-.11.06-.2.11-.19.1-.2.11-.17.09h-.08l-.12.06-.13.07h-.07l-.18.1-.21.11L58 33l-.13.07-.12.06h-.09l-.17.09-.21.11-.2.1h-.06l-.15.08-.11.06h-.1l-.16.08-.21.1-.21.1-.16.08h-.1l-.11.05-.15.07h-.06l-.2.1-.22.1-.18.08h-.09l-.13.06-.14.06h-.08l-.19.09-.22.1-.19.09h-.08l-.14.06-.13.06h-.09l-.18.08-.42.19h-.07l-.16.07-.12.05h-.1l-.17.07h-.05l-.22.09-.22.09h-.05l-.17.07h-.23l-.16.07h-.07l-.21.09-.22.09-.19.08h-.09l-.13.05-.15.06h-.08l-.2.08-.23.09-.2.08h-.08l-.15.06-.13.05h-.09l-.19.07-.23.09-.21.08h-.07l-.16.06h-.23l-.18.06h-.05l-.23.08-.54-1.74a1.52 1.52 0 0 0-2.31-.06l-1.65.52a1.54 1.54 0 0 0-.8 2l.56 1.83H42l-.29.09-.56-1.82a1.82 1.82 0 0 0-.77-1h-1l-1.65.52a1.54 1.54 0 0 0-.81 2l.53 1.7a89.83 89.83 0 0 1-19.23 2.95 38.61 38.61 0 0 1-2.1-5.39c-.73-2.63-.94-4.9-.39-6.54 1.36-4.07 3.34-5.91 5.77-6.63h.38L22 25h.13l.29-.05h1.48a56.81 56.81 0 0 1 8 .76 11.86 11.86 0 0 0 1.27.08h5.76l.29-.11h.64l.16-.06h.05c.51-.21 1-.42 1.35-.61h.76l.72-.42h.43l.41-.33-.55.33h-.96l-.13.05h-.05l-.13.05H40.5l-.24.07h-.34c-.44.12-.9.23-1.35.31h-.2c-8.39 1.61-11.5-1.2-18.68-2.05zM55 58.82l.5.92H42.64c.08-.32.16-.62.25-.92v-.25l.09-.25c.11-.28.22-.55.35-.81l.06-.12.13-.25v-.09l.22-.35.06-.08.06-.09.07-.1.08-.1.07-.09.09-.1.06-.07.05-.05.05-.05.21-.18.09-.07.1-.08.1-.07.09-.06.08-.05h.12l.1-.06h.13l.12-.06h.11l.12-.05h2.71-.06L49 54h-3.52l-.29.09H45l-.15.06-.16.07-.17.08-.18.08-.17.09-.16.09-.15.09-.16.1-.16.1-.14.09-.08.05-.12.08-.09.07-.15.12-.15.12-.13.11-.06.05-.06.05-.12.1-.15.14q-.38.36-.77.79a4.6 4.6 0 0 0-.59.87v2.16c-1.27 4-1.58 10.17-3.6 9.86-1.8-.27-5.26-4.49-8.82-9.86l-.09-.13-.09-.14-1.33-.06-.19-.32-.09-.14-.28-.43-.09-.14-.08-.13-.11-.16-.09-.15-.56-.85-.09-.15-.18-.3-.09-.15-.15-.14v-.15l-.14-.11-.09-.15v-.15l-.09-.15-.09-.15-.18-.3-.09-.15-.09-.15-.23-.2v-.15l-.09-.15v-.07l-.05-.09-.18-.14-.09-.15-.07-.12-.09-.15-.09-.15-.09-.15-.08-.14-.17-.37v-.06l-.05-.09-.09-.15-.09-.15-.06-.11-.18-.21-.09-.15-.09-.15-.08-.15-.09-.15-.09-.15v-.05l-.06-.1-.08-.15-.08-.15-.06-.1v-.05l-.08-.15-.08-.15-.08-.15c-.92-1.68-1.78-3.32-2.52-4.87q1.26.06 2.52.07h14.17l.25-.05.26-.05.24-.05h1.04l.22-.05.26-.06 1 3.23v.05h.45a1.16 1.16 0 0 0 .65 0l.71-.22.94-.3a1.55 1.55 0 0 0 .81-2l-1-3.08.83-.26 1 3.08a1.52 1.52 0 0 0 1.78 1.17l1.65-.52a1.55 1.55 0 0 0 .81-2l-1-3.24q1.18-.46 2.35-1h.17l.18-.08.17-.07h.18l.17-.08L51 39h.17l.17-.08.15-.07.12-.06h.06l.17-.08.14-.06.13-.06.17-.08.13-.06.14-.07.17-.09h.05l.12-.06.15-.07.17-.08h.06l.11-.05.15-.08.17-.09h.17l.16-.08.17-.09h.17l.17-.09.17-.09L55 37h.08l.17-.09.16-.08.1-.05h.07l.17-.09.15-.08.11-.06h.06l.17-.09.14-.08.12-.07.17-.09L57 36l.13-.07.16-.1.12-.07.14-.08.16-.1h.06l.11-.06.14-.09.16-.1h.07l.1-.06.15-.09.16-.1h.07l.09-.05.16-.1.16-.1.08-.05h.08l.16-.1.15-.1.09-.06h.07l.16-.1.27-.42.1-.06h.06l.16-.1.13-.09q1.63-1.08 3.18-2.25c.33 2.48.56 5.18.68 7.92v4.7c.06 9.74-1 18.82-2.57 19.62-.81.41-1.67-1.5-3-3.91l.06-.3v-.08l-.07-.14-.11-.2-.12-.22-.05-.1-.07-.12-.12-.22-.13-.22-.21-.23-.12-.25-.14-.22-.08-.12-.07-.1-.15-.23-.14-.21-.09-.13-.06-.09-.15-.22-.2-.28-.14-.15-.16-.21-.1-.13-.12-.15-.1-.12-.17-.21-.14-.16-.05-.06-.12-.13-.19-.2-.05-.06-.18-.18-.09-.09L55 54l-.08-.07-.22-.19-.08-.07-.26-.2-.08-.06-.28-.22h-.06l-.29-.19h-.07l-.31-.18-.27-.26h-.09l-.32-.15-.33-.13h-.09c-.23-.08-.47-.15-.71-.21h-.08L51 51.9h-2.26l-.44.06h-.07l-.42.08-.46.12h-.09q-.47.14-1 .33h-.1l-.45.19-.5.24L45 53l-.52.27s7.32-3.1 10.35 5.08v.39z" transform="translate(-1.25)"/><path d="M95.52 59.59A32.26 32.26 0 0 1 96 54a20.7 20.7 0 0 1 1.4-4.74 19.5 19.5 0 0 1 3.82-5.63 17.75 17.75 0 0 1 2.55-2.18 15 15 0 0 1 2.81-1.55 19.55 19.55 0 0 1 4.12-1.22 25.74 25.74 0 0 1 4.65-.4 22.25 22.25 0 0 1 8.1 1.4 17.67 17.67 0 0 1 6.38 4.24 18.08 18.08 0 0 1 4.1 6.74 26.6 26.6 0 0 1 1.35 8.78 26.47 26.47 0 0 1-1.34 8.72 18.2 18.2 0 0 1-4.07 6.72 17.58 17.58 0 0 1-6.35 4.23 22.11 22.11 0 0 1-8.06 1.4 22.63 22.63 0 0 1-8.14-1.39 17.47 17.47 0 0 1-6.38-4.21 18 18 0 0 1-4.07-6.67 25.94 25.94 0 0 1-1.34-8.61zm64.4-10h2.67v-5.1l.55-.32 7.44-4.32 1.66-1v10.73h5.06v8.13h-5.06v12.87a7.59 7.59 0 0 0 .07 1 .47.47 0 0 0 .07.16.73.73 0 0 0 .17.16.85.85 0 0 0 .23.11 1.34 1.34 0 0 0 .37 0 4.47 4.47 0 0 0 1-.14 15.88 15.88 0 0 0 1.61-.5l1.32-.47.15 1.4.63 5.75.09.81-.76.32a14.44 14.44 0 0 1-3 .9 17.84 17.84 0 0 1-3.31.3 11.66 11.66 0 0 1-2.1-.19 9.77 9.77 0 0 1-1.93-.57 7.83 7.83 0 0 1-1.62-.91 5.48 5.48 0 0 1-1.21-1.22 6.3 6.3 0 0 1-.72-1.49 10.22 10.22 0 0 1-.46-1.82 17.43 17.43 0 0 1-.19-2.11c0-.92-.06-2-.06-3.31V57.71h-2.83v-8.13zm15.17 5.91v-3.7H170v-9.09l-5.22 3v6.09h-3.38v3.69h3.41v13.33c0 1.33 0 2.4.06 3.21a15.08 15.08 0 0 0 .16 1.82 8.06 8.06 0 0 0 .36 1.44 4.14 4.14 0 0 0 .5 1 3.26 3.26 0 0 0 .73.72 5.54 5.54 0 0 0 1.16.64 7.4 7.4 0 0 0 1.49.43 9.51 9.51 0 0 0 1.7.15 15.66 15.66 0 0 0 2.9-.25 12.39 12.39 0 0 0 1.77-.47l-.41-3.51-.52.14a6.69 6.69 0 0 1-1.52.21 3.55 3.55 0 0 1-1-.14 3 3 0 0 1-.9-.44 2.93 2.93 0 0 1-.67-.68 2.66 2.66 0 0 1-.4-.87 8.25 8.25 0 0 1-.14-1.53v-15.2h5.06zM189.85 40v11.6a12.32 12.32 0 0 1 2.35-1.51 11.5 11.5 0 0 1 5.12-1.17 13.13 13.13 0 0 1 2.66.27 11.32 11.32 0 0 1 2.42.79 10.22 10.22 0 0 1 2 1.21 7.55 7.55 0 0 1 1.52 1.58 10 10 0 0 1 1.6 3.68 17.28 17.28 0 0 1 .31 2.45c.06 1 .1 2.08.1 3.35v17.58h-9.63V63.9c0-1.44 0-2.61-.1-3.51a8.14 8.14 0 0 0-.25-1.71 2.67 2.67 0 0 0-.41-.75 2.78 2.78 0 0 0-.65-.59A2.92 2.92 0 0 0 196 57a4.8 4.8 0 0 0-1.19-.14 5.51 5.51 0 0 0-1.46.19 4.64 4.64 0 0 0-1.25.54 3.64 3.64 0 0 0-1 .87 4.6 4.6 0 0 0-.69 1.27 9.1 9.1 0 0 0-.44 2 24 24 0 0 0-.16 3v15.1h-9.63V38.91h9.63V40zm-2.15 16.13l-.07-15h-5.2v36.48h5.2V64.67a26 26 0 0 1 .18-3.24 11.23 11.23 0 0 1 .57-2.48 6.83 6.83 0 0 1 1-1.89 5.91 5.91 0 0 1 1.62-1.38 6.85 6.85 0 0 1 1.83-.8 7.78 7.78 0 0 1 2-.26 6.9 6.9 0 0 1 1.75.21 5.15 5.15 0 0 1 1.53.67 5 5 0 0 1 1.16 1.05 4.88 4.88 0 0 1 .76 1.37 9.59 9.59 0 0 1 .38 2.29c.07 1 .11 2.19.11 3.67v13.7h5.2V62.27c0-1.24 0-2.32-.09-3.21a15.15 15.15 0 0 0-.27-2.13 7.76 7.76 0 0 0-1.24-2.87 5.28 5.28 0 0 0-1.05-1.06 8 8 0 0 0-1.58-.95 9.12 9.12 0 0 0-2-.64 10.93 10.93 0 0 0-2.21-.21c-4.07 0-6.75 2.42-9.62 5zm23.84 8.15a15.79 15.79 0 0 1 .49-3.9 17.38 17.38 0 0 1 1.46-3.77 14.16 14.16 0 0 1 2.4-3.31 13.5 13.5 0 0 1 3.21-2.42 15.73 15.73 0 0 1 3.8-1.47 17.53 17.53 0 0 1 4.18-.49 16.65 16.65 0 0 1 6.19 1.12 14.48 14.48 0 0 1 5 3.35 14.81 14.81 0 0 1 3.29 5.05 18 18 0 0 1 0 12.37 15.05 15.05 0 0 1-3.31 5.1 14.69 14.69 0 0 1-5 3.39 16.17 16.17 0 0 1-6.11 1.12 17.38 17.38 0 0 1-7.85-1.86 13.56 13.56 0 0 1-3.29-2.3 13 13 0 0 1-2.5-3.26 15.59 15.59 0 0 1-1.5-4 21.67 21.67 0 0 1-.49-4.69zm2.64-3.35a13.58 13.58 0 0 0-.42 3.35 19.57 19.57 0 0 0 .42 4.22 13.39 13.39 0 0 0 1.27 3.5 10.87 10.87 0 0 0 2 2.69 11.33 11.33 0 0 0 2.81 2 15.07 15.07 0 0 0 6.86 1.62 14 14 0 0 0 5.29-1 12.49 12.49 0 0 0 4.26-2.89 12.84 12.84 0 0 0 2.86-4.42 15.88 15.88 0 0 0 0-10.78 12.64 12.64 0 0 0-2.81-4.3 12.29 12.29 0 0 0-4.26-2.85 14.47 14.47 0 0 0-5.38-1 15.4 15.4 0 0 0-3.66.42 13.54 13.54 0 0 0-3.27 1.27 11.34 11.34 0 0 0-2.69 2 11.88 11.88 0 0 0-2 2.79 15.16 15.16 0 0 0-1.27 3.29zm7.18 3.75a11.4 11.4 0 0 0 .44 3.36 6.09 6.09 0 0 0 1.25 2.29 5.51 5.51 0 0 0 1.83 1.39 5.64 5.64 0 0 0 4.43 0 5.51 5.51 0 0 0 1.83-1.39 6.11 6.11 0 0 0 1.25-2.3 11.73 11.73 0 0 0 .44-3.4 11.19 11.19 0 0 0-.44-3.31 6.13 6.13 0 0 0-1.23-2.32 5.44 5.44 0 0 0-1.82-1.38 5.65 5.65 0 0 0-4.43 0 5.5 5.5 0 0 0-1.84 1.38 6.08 6.08 0 0 0-1.25 2.29 11.4 11.4 0 0 0-.44 3.36zm-1.67 4a15 15 0 0 1 0-8 8.28 8.28 0 0 1 1.72-3.11 7.72 7.72 0 0 1 2.59-1.93 7.79 7.79 0 0 1 6.25 0 7.64 7.64 0 0 1 2.57 1.94 8.31 8.31 0 0 1 1.71 3.1 13.37 13.37 0 0 1 .54 4 13.83 13.83 0 0 1-.54 4 8.29 8.29 0 0 1-1.71 3.13 7.67 7.67 0 0 1-2.56 1.93 7.79 7.79 0 0 1-6.26 0 7.73 7.73 0 0 1-2.58-1.93 8.29 8.29 0 0 1-1.72-3.12zm53.4 11.12h-8v-2.3a11.45 11.45 0 0 1-2.42 1.64 12.34 12.34 0 0 1-2.58 1 10.91 10.91 0 0 1-2.63.33 11.51 11.51 0 0 1-5-1.08 12.84 12.84 0 0 1-4.15-3.19 13.9 13.9 0 0 1-2.81-5.06 21.58 21.58 0 0 1-.91-6.52q0-7.56 3.64-11.58a12.23 12.23 0 0 1 4.21-3.04 12.64 12.64 0 0 1 5.12-1 11.08 11.08 0 0 1 4.85 1 11.91 11.91 0 0 1 2.16 1.35V38.91h9.63v40.92zm-5.77-2.22H272V41.13h-5.2V54l-.1 2.15a20.58 20.58 0 0 0-5.24-4.15 8.91 8.91 0 0 0-3.9-.86 10.47 10.47 0 0 0-4.24.83 10 10 0 0 0-3.42 2.51q-3.06 3.38-3.06 10.1a19.42 19.42 0 0 0 .81 5.86 11.71 11.71 0 0 0 2.35 4.28 10.66 10.66 0 0 0 3.43 2.65 9.35 9.35 0 0 0 4 .86 8.72 8.72 0 0 0 2.1-.26 10.19 10.19 0 0 0 2.11-.79 22 22 0 0 0 5.63-5.1v5.51zm-12.91-13.49q0 4.17 1.08 5.92a5.14 5.14 0 0 0 1.76 1.8 4.53 4.53 0 0 0 2.31.57 4.14 4.14 0 0 0 1.88-.43 5.08 5.08 0 0 0 1.63-1.35 6.24 6.24 0 0 0 1.13-2.31 13.32 13.32 0 0 0 .41-3.49 16.2 16.2 0 0 0-.4-3.88 6 6 0 0 0-1.09-2.38 4.67 4.67 0 0 0-1.61-1.29 4.64 4.64 0 0 0-2-.42 4.52 4.52 0 0 0-1.95.42 4.94 4.94 0 0 0-1.63 1.29 5.81 5.81 0 0 0-1.11 2.2 12.31 12.31 0 0 0-.4 3.35zm-.8 7.08q-1.41-2.29-1.41-7.08a14.48 14.48 0 0 1 .49-4 8 8 0 0 1 1.56-3 7.13 7.13 0 0 1 2.36-1.86 6.69 6.69 0 0 1 2.89-.63 6.81 6.81 0 0 1 3 .64 6.89 6.89 0 0 1 2.37 1.89 8.21 8.21 0 0 1 1.52 3.24 18.4 18.4 0 0 1 .47 4.42 15.45 15.45 0 0 1-.49 4.07 8.38 8.38 0 0 1-1.6 3.14 7.26 7.26 0 0 1-2.35 1.92 6.32 6.32 0 0 1-2.87.67 6.71 6.71 0 0 1-3.42-.88 7.29 7.29 0 0 1-2.53-2.55zm24-6.87a15.79 15.79 0 0 1 .49-3.9 17.42 17.42 0 0 1 1.46-3.77 14.19 14.19 0 0 1 2.4-3.31 13.5 13.5 0 0 1 3.21-2.42 15.75 15.75 0 0 1 3.8-1.47 17.55 17.55 0 0 1 4.18-.49 16.64 16.64 0 0 1 6.19 1.12 14.48 14.48 0 0 1 5 3.35 14.8 14.8 0 0 1 3.29 5.05 18 18 0 0 1 0 12.37 15 15 0 0 1-3.31 5.1 14.67 14.67 0 0 1-5 3.39 16.15 16.15 0 0 1-6.11 1.12 17.49 17.49 0 0 1-4-.46 17.72 17.72 0 0 1-3.83-1.39 13.57 13.57 0 0 1-3.38-2.33 13.07 13.07 0 0 1-2.46-3.26 15.59 15.59 0 0 1-1.47-4 21.64 21.64 0 0 1-.49-4.69zm2.64-3.35a13.6 13.6 0 0 0-.42 3.35 19.58 19.58 0 0 0 .42 4.22 13.42 13.42 0 0 0 1.24 3.48 10.89 10.89 0 0 0 2 2.69 11.32 11.32 0 0 0 2.81 2 15.07 15.07 0 0 0 6.86 1.62 14 14 0 0 0 5.29-1 12.48 12.48 0 0 0 4.26-2.89 12.84 12.84 0 0 0 2.86-4.42 15.88 15.88 0 0 0 0-10.78 12.61 12.61 0 0 0-2.81-4.3 12.29 12.29 0 0 0-4.26-2.85 14.47 14.47 0 0 0-5.38-1 15.4 15.4 0 0 0-3.66.42 13.55 13.55 0 0 0-3.28 1.27 11.35 11.35 0 0 0-2.69 2 11.91 11.91 0 0 0-2 2.79 15.15 15.15 0 0 0-1.27 3.29zm7.18 3.75a11.43 11.43 0 0 0 .44 3.36 6.1 6.1 0 0 0 1.25 2.29 5.5 5.5 0 0 0 1.84 1.39 5.64 5.64 0 0 0 4.43 0 5.49 5.49 0 0 0 1.83-1.39 6.1 6.1 0 0 0 1.25-2.3 11.73 11.73 0 0 0 .44-3.4 11.19 11.19 0 0 0-.44-3.31A6.13 6.13 0 0 0 297.2 59a5.43 5.43 0 0 0-1.82-1.38 5.65 5.65 0 0 0-4.43 0 5.51 5.51 0 0 0-1.84 1.38 6.08 6.08 0 0 0-1.25 2.29 11.4 11.4 0 0 0-.44 3.36zm-1.67 4a15 15 0 0 1 0-8 8.29 8.29 0 0 1 1.72-3.11 7.71 7.71 0 0 1 2.52-1.95 7.79 7.79 0 0 1 6.25 0 7.64 7.64 0 0 1 2.56 1.94 8.29 8.29 0 0 1 1.71 3.1 13.37 13.37 0 0 1 .55 4 13.86 13.86 0 0 1-.54 4 8.28 8.28 0 0 1-1.71 3.13 7.63 7.63 0 0 1-2.56 1.93 7.79 7.79 0 0 1-6.26 0 7.72 7.72 0 0 1-2.58-1.93 8.31 8.31 0 0 1-1.72-3.12zm53.2 11.12h-8.52V64.41q0-2.22-.12-3.64a8.29 8.29 0 0 0-.29-1.86 3.35 3.35 0 0 0-.47-.89 2.93 2.93 0 0 0-.67-.65A3 3 0 0 0 328 57a4 4 0 0 0-1.08-.14 5.2 5.2 0 0 0-1.51.21 4.74 4.74 0 0 0-1.32.64 4.54 4.54 0 0 0-1 1 4.28 4.28 0 0 0-.64 1.25 10.82 10.82 0 0 0-.38 2.23c-.09 1-.14 2.34-.14 3.87v13.8h-9.63V49.58h9.1V52a12.37 12.37 0 0 1 2.53-1.74 12.06 12.06 0 0 1 5.6-1.31 13.29 13.29 0 0 1 2.56.24 11.57 11.57 0 0 1 2.36.74 10.5 10.5 0 0 1 2 1.13 7.26 7.26 0 0 1 1.55 1.47 9.27 9.27 0 0 1 1 1.67 9.46 9.46 0 0 1 .64 1.87 15.64 15.64 0 0 1 .34 2.27c.07.86.11 1.84.11 3v18.49zm-6.31-2.22h5.2V61.29c0-1.05 0-2-.1-2.78a13.39 13.39 0 0 0-.28-2 7 7 0 0 0-1.25-2.7 5.07 5.07 0 0 0-1.06-1 8.45 8.45 0 0 0-1.58-.89 9.43 9.43 0 0 0-1.91-.58 11.14 11.14 0 0 0-2.13-.2 9.89 9.89 0 0 0-4.59 1.06 21.43 21.43 0 0 0-5.59 4.59l-.17-5h-4.67v25.82h5.2V66q0-2.4.15-4.06a12.89 12.89 0 0 1 .47-2.73 6.47 6.47 0 0 1 1-1.89 6.77 6.77 0 0 1 1.54-1.48 7 7 0 0 1 1.94-.94 7.35 7.35 0 0 1 2.15-.32 6.15 6.15 0 0 1 1.69.23 5.17 5.17 0 0 1 1.5.71 5.11 5.11 0 0 1 1.18 1.14 5.58 5.58 0 0 1 .78 1.47 10.24 10.24 0 0 1 .42 2.43q.12 1.51.12 3.82v13.2zm27.79-26.92v7h-5.06v12.9a8.34 8.34 0 0 0 .07 1 .52.52 0 0 0 .07.16.73.73 0 0 0 .17.16.85.85 0 0 0 .23.11 1.34 1.34 0 0 0 .37 0 4.47 4.47 0 0 0 1-.14 15.71 15.71 0 0 0 1.61-.5l1.32-.47.15 1.4.63 5.75.09.81-.75.32a14.43 14.43 0 0 1-3 .9 17.82 17.82 0 0 1-3.31.3 11.66 11.66 0 0 1-2.1-.19 9.76 9.76 0 0 1-1.93-.49 7.84 7.84 0 0 1-1.62-.91 5.49 5.49 0 0 1-1.21-1.22 6.3 6.3 0 0 1-.77-1.57 10.3 10.3 0 0 1-.46-1.82 17.7 17.7 0 0 1-.19-2.11c0-.92-.06-2-.06-3.31V57.71h-3.41v-8.13h3.41v-5.1l.55-.32 7.44-4.32 1.66-1v10.74h5.06v1.11zm-2.22 4.8V51.8h-5.06v-9.09l-5.22 3v6.09h-3.44v3.69h3.41v13.33c0 1.33 0 2.4.06 3.21a15.05 15.05 0 0 0 .16 1.82 8.15 8.15 0 0 0 .36 1.44 4.14 4.14 0 0 0 .5 1 3.27 3.27 0 0 0 .73.72 5.55 5.55 0 0 0 1.15.64 7.39 7.39 0 0 0 1.49.43 9.51 9.51 0 0 0 1.7.15A15.62 15.62 0 0 0 357 78a12.38 12.38 0 0 0 1.77-.47l-.44-3.53-.52.14a6.68 6.68 0 0 1-1.52.21 3.52 3.52 0 0 1-1-.14 3 3 0 0 1-.9-.44 2.93 2.93 0 0 1-.67-.68 2.71 2.71 0 0 1-.4-.87 8.43 8.43 0 0 1-.14-1.52V55.49h5.06zm5.15-8.6v-8H373V48h-9.63v-1.11zm2.22-5.76v4.65h5.2v-4.64zm-2.22 37.59V49.58H373v30.25h-9.63v-1.11zm2.22-26.92v25.82h5.2V51.8zm38.55 8.27l-7.32 1.32-1.1.2-.18-1.11a5.51 5.51 0 0 0-.5-1.6 3.28 3.28 0 0 0-.8-1 3.34 3.34 0 0 0-1.13-.62 5 5 0 0 0-1.54-.22 5.16 5.16 0 0 0-2.06.38 4.2 4.2 0 0 0-1.51 1.1 5.21 5.21 0 0 0-1 2.12 14.54 14.54 0 0 0-.37 3.57 17.59 17.59 0 0 0 .39 4 5.84 5.84 0 0 0 1 2.35 4.32 4.32 0 0 0 1.56 1.23 5 5 0 0 0 2.08.41 4.76 4.76 0 0 0 1.54-.19 3.43 3.43 0 0 0 1.16-.68 3.81 3.81 0 0 0 .88-1.27 9.82 9.82 0 0 0 .67-2.23l.2-1.07 1.07.18 7.29 1.24 1.15.19-.26 1.14a16.82 16.82 0 0 1-1.78 4.71 12.17 12.17 0 0 1-3 3.49 12 12 0 0 1-4.14 2.12 18.2 18.2 0 0 1-5.18.69 16.05 16.05 0 0 1-5.94-1 12.79 12.79 0 0 1-4.67-3.18 13.62 13.62 0 0 1-3-5 22.15 22.15 0 0 1 0-13 13.56 13.56 0 0 1 3-5 12.89 12.89 0 0 1 4.77-3.33 16.42 16.42 0 0 1 6-1 18.73 18.73 0 0 1 4.89.59 11.87 11.87 0 0 1 3.91 1.83 11.49 11.49 0 0 1 2.87 3.08 16 16 0 0 1 1.91 4.17l.35 1.18-1.21.22zm-6.67-1l5-.9a12.93 12.93 0 0 0-1.23-2.48 9.33 9.33 0 0 0-2.32-2.48 9.69 9.69 0 0 0-3.19-1.48 16.5 16.5 0 0 0-4.31-.51 14.25 14.25 0 0 0-5.21.89 10.67 10.67 0 0 0-3.92 2.64 11.37 11.37 0 0 0-2.5 4.23 20 20 0 0 0 0 11.58 11.42 11.42 0 0 0 2.5 4.23 10.6 10.6 0 0 0 3.87 2.63 13.89 13.89 0 0 0 5.12.89 16.06 16.06 0 0 0 4.55-.59 9.64 9.64 0 0 0 5.82-4.59 13.75 13.75 0 0 0 1.25-3l-5.07-.86a10.67 10.67 0 0 1-.59 1.69 6 6 0 0 1-1.42 2 5.59 5.59 0 0 1-1.9 1.05 6.93 6.93 0 0 1-2.28.36 7.12 7.12 0 0 1-3-.62 6.54 6.54 0 0 1-2.36-1.85 8 8 0 0 1-1.48-3.23 19.89 19.89 0 0 1-.45-4.51 16.68 16.68 0 0 1 .45-4.12 7.38 7.38 0 0 1 1.47-3 6.42 6.42 0 0 1 2.33-1.72 7.31 7.31 0 0 1 2.93-.57 7.21 7.21 0 0 1 2.23.33 5.43 5.43 0 0 1 3.24 2.81 7 7 0 0 1 .45 1.14zm9.32 10.6l7.44-1.13 1-.16.22 1a5.47 5.47 0 0 0 .59 1.58A3.68 3.68 0 0 0 417 72a3.9 3.9 0 0 0 1.36.65 7.61 7.61 0 0 0 2 .24 9.67 9.67 0 0 0 2.26-.23A3.92 3.92 0 0 0 424 72a1.32 1.32 0 0 0 .4-.46 1.39 1.39 0 0 0 .13-.62 1.11 1.11 0 0 0-.06-.38.77.77 0 0 0-.13-.22 1.94 1.94 0 0 0-.54-.28 10.55 10.55 0 0 0-1.43-.42q-4.48-1-7.4-1.92a17.73 17.73 0 0 1-4.34-1.87 8.35 8.35 0 0 1-3.81-7.23 8.89 8.89 0 0 1 .83-3.82 9.41 9.41 0 0 1 2.44-3.14 10.53 10.53 0 0 1 4.09-2.09 20.81 20.81 0 0 1 5.54-.66 24.81 24.81 0 0 1 5.25.5 11.46 11.46 0 0 1 3.95 1.61 10 10 0 0 1 2.66 2.61 12 12 0 0 1 1.64 3.55l.33 1.17-1.2.22-7 1.29-1 .18-.27-1a3.68 3.68 0 0 0-.49-1.11 2.9 2.9 0 0 0-.77-.77 3.4 3.4 0 0 0-1.15-.49 7.68 7.68 0 0 0-1.79-.18 12.52 12.52 0 0 0-2.3.18 3.77 3.77 0 0 0-1.27.44.94.94 0 0 0-.29.29.63.63 0 0 0-.07.3.41.41 0 0 0 0 .2.88.88 0 0 0 .25.26 8 8 0 0 0 1.89.72q1.72.52 4.62 1.18a35 35 0 0 1 5.19 1.54 13.19 13.19 0 0 1 3.54 2 7.4 7.4 0 0 1 2 2.78 9.63 9.63 0 0 1-.25 7.64 10.62 10.62 0 0 1-2.7 3.4 11.62 11.62 0 0 1-4.4 2.3 21 21 0 0 1-5.84.74 21.8 21.8 0 0 1-5.4-.62 13.21 13.21 0 0 1-4.3-1.9 11.83 11.83 0 0 1-3-3 12.16 12.16 0 0 1-1.69-3.92l-.31-1.19 1.21-.18zm6.81 1.2l-5.2.79a9.46 9.46 0 0 0 3.55 4.5 11 11 0 0 0 3.59 1.58 19.6 19.6 0 0 0 4.86.54 18.93 18.93 0 0 0 5.23-.64 9.44 9.44 0 0 0 3.57-1.85 8.42 8.42 0 0 0 2.14-2.68A7 7 0 0 0 432 70a7 7 0 0 0-.49-2.71 5.2 5.2 0 0 0-1.44-2 11.07 11.07 0 0 0-2.93-1.62 32.89 32.89 0 0 0-4.86-1.44c-2-.46-3.61-.87-4.77-1.21a9.28 9.28 0 0 1-2.57-1.07 3 3 0 0 1-.86-1 2.59 2.59 0 0 1-.32-1.26 2.81 2.81 0 0 1 .35-1.37 3.12 3.12 0 0 1 1-1 5.84 5.84 0 0 1 2.07-.78 14.49 14.49 0 0 1 2.72-.23 9.87 9.87 0 0 1 2.32.25 5.64 5.64 0 0 1 1.89.82 5.09 5.09 0 0 1 1.34 1.34 5.47 5.47 0 0 1 .46.81l4.81-.88a9 9 0 0 0-.93-1.74 7.75 7.75 0 0 0-2.06-2 9.29 9.29 0 0 0-3.17-1.25 22.72 22.72 0 0 0-4.78-.44 18.7 18.7 0 0 0-5 .58 8.31 8.31 0 0 0-3.24 1.64 7.21 7.21 0 0 0-1.87 2.39 6.71 6.71 0 0 0-.61 2.88 6.53 6.53 0 0 0 .7 3.09 6.46 6.46 0 0 0 2.14 2.32 15.85 15.85 0 0 0 3.77 1.58q2.75.87 7.22 1.86a12.72 12.72 0 0 1 1.73.52 3.9 3.9 0 0 1 1.25.73 3 3 0 0 1 .63 1 3.29 3.29 0 0 1 .21 1.16 3.57 3.57 0 0 1-.36 1.61 3.47 3.47 0 0 1-1.07 1.25 6.07 6.07 0 0 1-2.2 1 11.76 11.76 0 0 1-2.78.3 9.75 9.75 0 0 1-2.62-.33 6.06 6.06 0 0 1-2.12-1 5.84 5.84 0 0 1-1.49-1.7 7.22 7.22 0 0 1-.56-1.22zM98.16 54.34a30.18 30.18 0 0 0-.42 5.25 23.78 23.78 0 0 0 1.21 7.88 15.83 15.83 0 0 0 3.57 5.86 15.33 15.33 0 0 0 5.57 3.67 20.47 20.47 0 0 0 7.36 1.24 20 20 0 0 0 7.26-1.24 15.39 15.39 0 0 0 5.56-3.7 16 16 0 0 0 3.58-5.91 24.29 24.29 0 0 0 1.21-8 24.44 24.44 0 0 0-1.22-8 15.91 15.91 0 0 0-3.6-5.93 15.47 15.47 0 0 0-5.59-3.72 20.08 20.08 0 0 0-7.3-1.25 23.61 23.61 0 0 0-4.25.36 17.23 17.23 0 0 0-3.66 1.08 12.87 12.87 0 0 0-2.4 1.32 15.46 15.46 0 0 0-2.23 1.9 17.17 17.17 0 0 0-3.38 5 18.48 18.48 0 0 0-1.25 4.23zm7.62 5a18.82 18.82 0 0 0 .71 5.45 10 10 0 0 0 2 3.78 8.92 8.92 0 0 0 3.06 2.26 10.12 10.12 0 0 0 7.63 0 8.78 8.78 0 0 0 3-2.25 9.81 9.81 0 0 0 2-3.78 19.72 19.72 0 0 0 .7-5.57 19.65 19.65 0 0 0-.68-5.49 9.56 9.56 0 0 0-1.94-3.7 8.34 8.34 0 0 0-3-2.17 10.87 10.87 0 0 0-7.85 0 8.54 8.54 0 0 0-3 2.2 9.61 9.61 0 0 0-2 3.73 19.57 19.57 0 0 0-.69 5.52zm-1.41 6.09a21 21 0 0 1-.81-6.09 21.68 21.68 0 0 1 .79-6.15 11.81 11.81 0 0 1 2.45-4.58 10.69 10.69 0 0 1 3.82-2.77 13 13 0 0 1 9.58 0 10.54 10.54 0 0 1 3.8 2.71 11.72 11.72 0 0 1 2.42 4.55 21.78 21.78 0 0 1 .78 6.11 21.82 21.82 0 0 1-.8 6.2 12 12 0 0 1-2.48 4.59 11 11 0 0 1-3.8 2.81 12.23 12.23 0 0 1-9.4 0 11.12 11.12 0 0 1-3.83-2.81 12.15 12.15 0 0 1-2.51-4.61zm42.94 14.37h-8.52V49.56h9.1v1.73a7.47 7.47 0 0 1 1.48-1.29 6.9 6.9 0 0 1 1.8-.8 7.31 7.31 0 0 1 2-.27 10 10 0 0 1 2.79.4 10.94 10.94 0 0 1 1.12.39l2.39 1.12-3.14 8.75-1.17-.75a7.55 7.55 0 0 0-1.57-.79 4 4 0 0 0-1.31-.24 3.63 3.63 0 0 0-1.1.16 2.65 2.65 0 0 0-.84.45 2.72 2.72 0 0 0-.68.85 8 8 0 0 0-.64 1.66 17.79 17.79 0 0 0-.43 3.25q-.15 2.29-.15 5.86v9.76zm9.77-30.1v-.15.15zM141 77.58h5.2V70q0-3.59.16-6a19.72 19.72 0 0 1 .51-3.7 10.12 10.12 0 0 1 .83-2.13 4.91 4.91 0 0 1 1.3-1.5 4.92 4.92 0 0 1 1.54-.82 5.79 5.79 0 0 1 1.78-.27 6.2 6.2 0 0 1 2 .37 8.22 8.22 0 0 1 .84.34l1.53-4.29a8.6 8.6 0 0 0-1.34-.51 7.83 7.83 0 0 0-2.18-.3 5.14 5.14 0 0 0-1.4.18A4.74 4.74 0 0 0 149.3 53c-1.19 1.4-2.05 2.72-3.37 4.15l-.26-5.4H141v25.83z" transform="translate(-1.25)"/><path class="acls-2" d="M363.2 46.89v-6.87h7.42v6.87h-7.42z"/><path class="acls-2" d="M406.93 70.72l7.44-1.13a5.44 5.44 0 0 0 1.93 3.29 6.49 6.49 0 0 0 4.06 1.12 7.24 7.24 0 0 0 4.32-1.06 2.33 2.33 0 0 0 1-2 2 2 0 0 0-.53-1.4 5.93 5.93 0 0 0-2.48-1q-9-2-11.38-3.61a7.23 7.23 0 0 1-3.29-6.28 7.76 7.76 0 0 1 2.87-6.12Q413.7 50 419.75 50c3.84 0 6.69.63 8.56 1.87a9.58 9.58 0 0 1 3.85 5.55l-7 1.29a4.29 4.29 0 0 0-1.7-2.5 6.19 6.19 0 0 0-3.58-.87 8 8 0 0 0-4.2.82 1.76 1.76 0 0 0-.84 1.5 1.62 1.62 0 0 0 .74 1.34q1 .74 6.93 2.09t8.27 3.3a6.86 6.86 0 0 1 2.33 5.61 8.46 8.46 0 0 1-3.23 6.63q-3.22 2.77-9.52 2.77-5.73 0-9.07-2.33a10.65 10.65 0 0 1-4.36-6.31zM96.63 59.59a24.6 24.6 0 0 1 1.77-9.93 18.33 18.33 0 0 1 3.6-5.31 15.18 15.18 0 0 1 5-3.48 21.13 21.13 0 0 1 8.34-1.53q8.56 0 13.69 5.31t5.14 14.75q0 9.38-5.1 14.67t-13.61 5.29q-8.64 0-13.73-5.26t-5.09-14.5zm8-.26q0 6.57 3 10a9.9 9.9 0 0 0 7.71 3.39 9.8 9.8 0 0 0 7.67-3.37q3-3.37 3-10.09t-2.91-9.93a10.81 10.81 0 0 0-15.54 0q-2.95 3.31-3 10zm42.63 19.37h-7.42v-28h6.88v4a12 12 0 0 1 3.28-3.77 5.89 5.89 0 0 1 3.21-.9 9.38 9.38 0 0 1 4.79 1.4l-2.3 6.46a6.53 6.53 0 0 0-3.48-1.21 4.08 4.08 0 0 0-2.64.86 5.8 5.8 0 0 0-1.7 3.1q-.62 2.24-.62 9.4v8.66zm28.9-28v5.9h-5.06v11.3a27.77 27.77 0 0 0 .14 4 1.66 1.66 0 0 0 .66.94 2.12 2.12 0 0 0 1.25.37 9.79 9.79 0 0 0 3-.71l.63 5.75a14.76 14.76 0 0 1-5.78 1.1 9.4 9.4 0 0 1-3.61-.67 5.33 5.33 0 0 1-2.39-1.75 6.89 6.89 0 0 1-1-2.89 36.83 36.83 0 0 1-.23-5.22V56.6h-2.81v-5.91h2.81v-5.58l7.44-4.33v9.9zM188.75 40v14.25A11.1 11.1 0 0 1 201.94 51a7.55 7.55 0 0 1 3.1 2.42 8.87 8.87 0 0 1 1.42 3.28 28.64 28.64 0 0 1 .39 5.57v16.45h-7.41V63.9a22 22 0 0 0-.42-5.59 3.7 3.7 0 0 0-1.5-1.88 4.76 4.76 0 0 0-2.67-.7 6.09 6.09 0 0 0-3.3.9 5.1 5.1 0 0 0-2.13 2.7 16.09 16.09 0 0 0-.68 5.34v14h-7.41V40zm23.91 24.3a15.27 15.27 0 0 1 1.82-7.15 12.51 12.51 0 0 1 5.16-5.27A15.29 15.29 0 0 1 227.1 50a14 14 0 0 1 10.42 4.14 14.27 14.27 0 0 1 4.06 10.44 14.47 14.47 0 0 1-4.1 10.54 13.86 13.86 0 0 1-10.33 4.18 16.25 16.25 0 0 1-7.35-1.74 12 12 0 0 1-5.32-5.11 17.1 17.1 0 0 1-1.82-8.2zm7.6.4q0 4.17 2 6.39a6.47 6.47 0 0 0 9.75 0q2-2.22 2-6.44a9.23 9.23 0 0 0-2-6.33 6.47 6.47 0 0 0-9.75 0c-1.33 1.48-2 3.61-2 6.39zm52.84 14h-6.88v-4.1a11.12 11.12 0 0 1-4.05 3.58 10.37 10.37 0 0 1-4.71 1.17 10.68 10.68 0 0 1-8.28-3.89q-3.43-3.89-3.44-10.86 0-7.14 3.35-10.84a11 11 0 0 1 8.47-3.76 10.5 10.5 0 0 1 8.13 4V40h7.41v38.7zm-19.79-14.61q0 4.49 1.25 6.5a5.6 5.6 0 0 0 5 2.9 5.47 5.47 0 0 0 4.36-2.18c1.19-1.45 1.79-3.62 1.79-6.5 0-3.22-.59-5.54-1.74-7a5.73 5.73 0 0 0-8.88 0q-1.78 2.09-1.79 6.27zm25.39.21a15.27 15.27 0 0 1 1.82-7.15 12.51 12.51 0 0 1 5.16-5.27 15.29 15.29 0 0 1 7.46-1.88 14 14 0 0 1 10.42 4.14 14.27 14.27 0 0 1 4.06 10.44 14.47 14.47 0 0 1-4.1 10.54 13.86 13.86 0 0 1-10.33 4.18 16.24 16.24 0 0 1-7.35-1.74 12 12 0 0 1-5.32-5.11 17.1 17.1 0 0 1-1.82-8.2zm7.6.4q0 4.17 2 6.39a6.47 6.47 0 0 0 9.75 0q2-2.22 2-6.44a9.23 9.23 0 0 0-2-6.33 6.47 6.47 0 0 0-9.75 0c-1.33 1.48-2 3.61-2 6.39zm52.63 14h-7.41V64.41a22.16 22.16 0 0 0-.48-5.87 4.17 4.17 0 0 0-1.55-2.07 4.45 4.45 0 0 0-2.57-.74 6 6 0 0 0-3.46 1.05 5.38 5.38 0 0 0-2.1 2.8 24.18 24.18 0 0 0-.57 6.44v12.7h-7.41v-28h6.88v4.12A11.49 11.49 0 0 1 334 50.93a7.53 7.53 0 0 1 3.07 2.26 8.19 8.19 0 0 1 1.45 3.12 22.63 22.63 0 0 1 .41 5v17.41zm20.37-28v5.9h-5.06v11.3a27.71 27.71 0 0 0 .14 4 1.66 1.66 0 0 0 .66.94 2.12 2.12 0 0 0 1.25.37 9.78 9.78 0 0 0 3-.71l.63 5.75a14.76 14.76 0 0 1-5.92 1.1 9.4 9.4 0 0 1-3.61-.67 5.33 5.33 0 0 1-2.36-1.75A6.88 6.88 0 0 1 347 74a36.79 36.79 0 0 1-.23-5.22V56.6h-3.41v-5.91h3.41v-5.58l7.44-4.33v9.9zm5.15 28v-28h7.41v28zM403.92 59l-7.32 1.32a5.28 5.28 0 0 0-1.68-3.3 5.06 5.06 0 0 0-3.39-1.11 5.55 5.55 0 0 0-4.42 1.91q-1.65 1.92-1.65 6.41 0 5 1.68 7a5.5 5.5 0 0 0 4.5 2.05 5 5 0 0 0 3.46-1.2A7.21 7.21 0 0 0 397 68l7.29 1.23a13 13 0 0 1-4.36 7.58q-3.22 2.57-8.63 2.56a12.82 12.82 0 0 1-9.8-3.87q-3.66-3.88-3.66-10.75t3.67-10.8q3.67-3.95 9.92-3.95a13.56 13.56 0 0 1 8.14 2.21 12.27 12.27 0 0 1 4.35 6.79z" transform="translate(-1.25)"/><path class="acls-3" d="M45.14 54.17a4.13 4.13 0 0 1 .55-.16h-.26l-.28.09zM1.25 40.84h10c.39.93.83 1.88 1.31 2.85a43.43 43.43 0 0 1-10.9-1.86 55.14 55.14 0 0 0 11.4 2.91 101.07 101.07 0 0 0 7.1 11.48v3.52H1.25v-18.9zm21.48 18.9h-1.22v-1.63q.61.83 1.22 1.64zm-1.22 1.36h2.27C29 67.8 34.12 72.94 36.17 73.29h1.07a4.06 4.06 0 0 0 3.18-2.18V80H21.51V61.1zm20.86 0h14a21 21 0 0 0 4.36 5.51V80H41.77V65.81c.19-1.55.33-3.18.59-4.71zm26.47-20.26h12.1v18.9H66.43a124.55 124.55 0 0 0 2.41-18.91zM50.12 54.29l.54.2.79.36h.09c2.86 1.44 2.75 2.66 4 4.83h-12.9c.08-.32.16-.62.25-.92v-.25l.09-.25c.11-.28.22-.55.35-.81l.06-.12.14-.25v-.09l.22-.35.05-.08.06-.09.08-.1.08-.1.07-.09.09-.1.06-.07.05-.05.05-.05.21-.18.09-.07.1-.08.1-.07.09-.06.08-.05h.12l.1-.06h.13l.12-.06h.11l.12-.05h3.15a3.16 3.16 0 0 1 .51.1z" transform="translate(-1.25)"/><path class="acls-4" d="M66.11 61.1h14.83V80H62V67.4c1.15.39 2-.12 2.55-1.7a26.54 26.54 0 0 0 1.53-4.6zm-64.86 0h18.91V80H1.25V61.1z" transform="translate(-1.25)"/><path class="acls-5" d="M1.25 20.58h16.12c-5.26.74-8.41 4.66-8.2 12.6a20 20 0 0 0 1.49 6.31H1.25V20.58zm66.79 0h6.75a44.49 44.49 0 0 1-5.92 5.51 29 29 0 0 0-.87-5.51zM21.51.31h18.91v18c-.79.35-1.59.66-2.41.95h-16.5V.31zm20.26 0h18.91v11a13.45 13.45 0 0 0-3.09-.57c-4.59-.37-9.59 3.9-15.82 6.91V.31zM75 20.58h6v18.9H69a120.69 120.69 0 0 0 0-12.34 57 57 0 0 0 6-6.57z" transform="translate(-1.25)"/><path class="acls-6" d="M62 .31h18.94v18.91H76q.42-.57.82-1.16-.42.58-.88 1.16H67.6c-1.25-3.57-2.86-6-5.56-7.38V.31zM1.25.31h18.91v18.91H1.25V.31z" transform="translate(-1.25)"/><path d="M117.83.43h11.1v16.74a13.67 13.67 0 0 1-.27 2.84 7.13 7.13 0 0 1-.84 2.22 7.9 7.9 0 0 1-2.19 2.23 14.71 14.71 0 0 1-3.43 1.73 22.67 22.67 0 0 1-4.71 1.12 42 42 0 0 1-5.74.36 35.3 35.3 0 0 1-6.7-.57 17.46 17.46 0 0 1-5.17-1.78 8.47 8.47 0 0 1-3.19-2.9 7.15 7.15 0 0 1-1-3.8v-.8l1.48-.09 8.9-.55 1.79-.11.07 1a6 6 0 0 0 .34 1.69 2.32 2.32 0 0 0 .59.92 3.34 3.34 0 0 0 1.3.68 7.06 7.06 0 0 0 1.93.23 10.1 10.1 0 0 0 2.07-.17 2.7 2.7 0 0 0 1-.42 2.18 2.18 0 0 0 .68-1.11 7.78 7.78 0 0 0 .3-2.37V.43zm7.74 1.8h-6.06v15.26a8.72 8.72 0 0 1-.35 2.68 3.62 3.62 0 0 1-1.28 1.83 6.47 6.47 0 0 1-2.5 1 15.84 15.84 0 0 1-3.32.31 12.72 12.72 0 0 1-3.52-.45 6.63 6.63 0 0 1-2.54-1.28 3.74 3.74 0 0 1-1-1.49 5.87 5.87 0 0 1-.28-1l-5.72.33a5.81 5.81 0 0 0 .82 2.44 6.46 6.46 0 0 0 2.43 2.22 13.18 13.18 0 0 0 3.9 1.34 29.43 29.43 0 0 0 5.56.46 36.11 36.11 0 0 0 4.91-.3 17.66 17.66 0 0 0 3.66-.87 11.39 11.39 0 0 0 2.72-1.33 6.07 6.07 0 0 0 1.67-1.71 6 6 0 0 0 .69-1.86 12.72 12.72 0 0 0 .24-2.64V2.23zM136.78 14a11.6 11.6 0 0 1 .56-3.67 9.62 9.62 0 0 1 1.72-3.11 13.81 13.81 0 0 1 2-2 19.36 19.36 0 0 1 2.64-1.73 23.78 23.78 0 0 1 3.14-1.43 26.47 26.47 0 0 1 3.46-1 40.69 40.69 0 0 1 5.05-.8Q158.1 0 161.08 0a48.89 48.89 0 0 1 9.92.92 27.73 27.73 0 0 1 7.83 2.79 13.76 13.76 0 0 1 5 4.43 10.29 10.29 0 0 1 1.65 5.74 10.23 10.23 0 0 1-1.64 5.7 13.76 13.76 0 0 1-5 4.41 27.53 27.53 0 0 1-7.79 2.78 48.59 48.59 0 0 1-9.86.92 49.76 49.76 0 0 1-10-.91 27.6 27.6 0 0 1-7.78-2.78 13.77 13.77 0 0 1-5-4.38 10 10 0 0 1-1.63-5.62zm3.86-3.36a10.63 10.63 0 0 0-.51 3.36 9 9 0 0 0 1.44 5 11.68 11.68 0 0 0 4.23 3.72 23.37 23.37 0 0 0 6.63 2.34 43.91 43.91 0 0 0 8.77.79 42.75 42.75 0 0 0 8.66-.79 23.34 23.34 0 0 0 6.59-2.35A11.71 11.71 0 0 0 180.7 19a9.16 9.16 0 0 0 1.44-5.11 9.22 9.22 0 0 0-1.45-5.15A11.69 11.69 0 0 0 176.42 5a23.52 23.52 0 0 0-6.64-2.36 43.08 43.08 0 0 0-8.7-.79q-2.74 0-5.08.23a35 35 0 0 0-4.35.69 21.73 21.73 0 0 0-2.84.84 20.18 20.18 0 0 0-2.65 1.21 16.64 16.64 0 0 0-2.27 1.49 11.92 11.92 0 0 0-1.75 1.67 8.33 8.33 0 0 0-1.48 2.69zm9.22 3.2a6.9 6.9 0 0 0 .84 3.47 6.57 6.57 0 0 0 2.39 2.37 12.56 12.56 0 0 0 3.59 1.42 19.64 19.64 0 0 0 4.49.47 19.62 19.62 0 0 0 4.47-.47 12.25 12.25 0 0 0 3.55-1.41 6.39 6.39 0 0 0 2.36-2.38 7.21 7.21 0 0 0 .83-3.55 7.18 7.18 0 0 0-.81-3.5 6.17 6.17 0 0 0-2.28-2.32 11.89 11.89 0 0 0-3.51-1.36 23.48 23.48 0 0 0-9.24 0A12.07 12.07 0 0 0 153 8a6.26 6.26 0 0 0-2.32 2.34 7.16 7.16 0 0 0-.82 3.52zm-2.36 4a7.92 7.92 0 0 1-1-4 8.19 8.19 0 0 1 1-4 8.18 8.18 0 0 1 3-3A16.15 16.15 0 0 1 155.24 5a29.14 29.14 0 0 1 11.83 0 15.91 15.91 0 0 1 4.7 1.81 8.06 8.06 0 0 1 3 3 8.2 8.2 0 0 1 1 4 8.24 8.24 0 0 1-1 4.06 8.28 8.28 0 0 1-3.06 3.06 16.29 16.29 0 0 1-4.71 1.81 25.42 25.42 0 0 1-5.8.62 25.45 25.45 0 0 1-5.82-.62 16.6 16.6 0 0 1-4.74-1.87 8.48 8.48 0 0 1-3.1-3zm45.11 8.53V.43h12.81v9.85h15.15V.43h12.79v26.83h-12.79V16.31h-15.15v10.95h-12.81v-.9zM196 2.23v23.22h6.1V14.51h21.85v10.94H230V2.23h-6.09v9.85h-21.84V2.23zm47 24.13V.43h11.8l.49.43 16 14V.43h12.11v26.83h-12.09l-.5-.43-15.74-13.64v14.07h-12.13v-.9zm3.36-24.13v23.22h5.42V7.26l21.45 18.2H280V2.23h-5.42v19l-21.73-19zm45.94 15.09l9.19-.48 1.54-.08.27.82a5.12 5.12 0 0 0 1.1 1.91 5.21 5.21 0 0 0 1.7 1.2 9.75 9.75 0 0 0 2.41.7 20.23 20.23 0 0 0 3.35.25 24.24 24.24 0 0 0 3.55-.22 8.69 8.69 0 0 0 2.24-.6 4.2 4.2 0 0 0 1.32-.84 1.25 1.25 0 0 0 .39-.88 1 1 0 0 0-.15-.53 1.4 1.4 0 0 0-.43-.4 3.81 3.81 0 0 0-.89-.38 15 15 0 0 0-1.76-.42c-.5-.1-1.37-.23-2.59-.41l-4.81-.66q-3.91-.52-6.72-1.17a23.12 23.12 0 0 1-4.64-1.51 11 11 0 0 1-3.73-2.62 4.7 4.7 0 0 1-1.23-3.12 5.33 5.33 0 0 1 2.3-4.07 11.94 11.94 0 0 1 2.83-1.67 21.57 21.57 0 0 1 3.76-1.2 36.13 36.13 0 0 1 4.57-.71q2.44-.23 5.27-.23a53.72 53.72 0 0 1 8.19.55 23.33 23.33 0 0 1 6.17 1.73A11 11 0 0 1 329.32 5a5.81 5.81 0 0 1 1.43 3.45l.06.89h-1.66l-9.44.22h-1.48l-.23-.71a3.57 3.57 0 0 0-.8-1.4 3.42 3.42 0 0 0-1.2-.81 7.63 7.63 0 0 0-1.88-.47 22.53 22.53 0 0 0-3.07-.17 23.87 23.87 0 0 0-3.25.19 9.81 9.81 0 0 0-2.21.53 1.7 1.7 0 0 0-.61.36.64.64 0 0 0-.19.46.61.61 0 0 0 .21.46 1.92 1.92 0 0 0 .62.4 13.47 13.47 0 0 0 2.55.66q2 .39 5.43.82a79.33 79.33 0 0 1 10.58 1.88 19.52 19.52 0 0 1 3.27 1.24 11.92 11.92 0 0 1 2.55 1.6 6.22 6.22 0 0 1 1.6 2.06 5.59 5.59 0 0 1 .52 2.4 4.77 4.77 0 0 1-.63 2.34 7.82 7.82 0 0 1-1.87 2.17 12.67 12.67 0 0 1-3 1.85 21.65 21.65 0 0 1-4 1.29 38.29 38.29 0 0 1-5 .74q-2.7.24-5.87.24a52.86 52.86 0 0 1-8.32-.59 24.66 24.66 0 0 1-6.43-1.81 12.63 12.63 0 0 1-4.22-3 8.69 8.69 0 0 1-2-4l-.2-.91 1.71-.09zm8 1.38l-5.95.31a7.39 7.39 0 0 0 1.47 2.51 10.07 10.07 0 0 0 3.37 2.4 20 20 0 0 0 5.17 1.46 46.94 46.94 0 0 0 7.36.51q2.93 0 5.32-.21a32.61 32.61 0 0 0 4.22-.63 17.07 17.07 0 0 0 3.19-1 9.78 9.78 0 0 0 2.35-1.43 6.19 6.19 0 0 0 1.48-1.71 3.72 3.72 0 0 0 .49-1.83 4.58 4.58 0 0 0-.41-2 4.66 4.66 0 0 0-1.19-1.55 9.13 9.13 0 0 0-1.94-1.26 15.39 15.39 0 0 0-2.59-1 74.72 74.72 0 0 0-9.79-1.72q-3.5-.44-5.8-.88a17.48 17.48 0 0 1-3.57-1 4.5 4.5 0 0 1-1.49-1 1.78 1.78 0 0 1-.53-1.22 1.82 1.82 0 0 1 .54-1.2 4.53 4.53 0 0 1 1.64-1 14.82 14.82 0 0 1 3.36-.81 29.85 29.85 0 0 1 4.09-.26 28.2 28.2 0 0 1 3.91.24 12.41 12.41 0 0 1 3.09.8 6.1 6.1 0 0 1 2.11 1.42 4.86 4.86 0 0 1 .8 1.13l6.29-.15a4.74 4.74 0 0 0-1-1.87 8.53 8.53 0 0 0-3-2.11 18.65 18.65 0 0 0-4.91-1.37 47.89 47.89 0 0 0-7.26-.48q-2.55 0-4.7.2a30.56 30.56 0 0 0-3.84.59 17.09 17.09 0 0 0-3 .95 8.92 8.92 0 0 0-2.12 1.26 4 4 0 0 0-1.75 3.09 3.56 3.56 0 0 0 .92 2.37 8.52 8.52 0 0 0 2.83 2 18.82 18.82 0 0 0 3.74 1.2q2.51.58 6.19 1.07l4.87.67q1.95.28 2.84.45a19.87 19.87 0 0 1 2.36.57 7.39 7.39 0 0 1 1.76.78 3.31 3.31 0 0 1 1 1 2 2 0 0 1 .34 1.12 2.44 2.44 0 0 1-.77 1.71 6.81 6.81 0 0 1-2.16 1.4 13.39 13.39 0 0 1-3.48 1 30.1 30.1 0 0 1-4.46.29 26.16 26.16 0 0 1-4.36-.33 14.36 14.36 0 0 1-3.56-1 7.81 7.81 0 0 1-2.53-1.78 6.37 6.37 0 0 1-1.07-1.58zm37.55-4.7a11.59 11.59 0 0 1 .56-3.67 9.61 9.61 0 0 1 1.72-3.11 13.8 13.8 0 0 1 2-2 19.4 19.4 0 0 1 2.64-1.73A23.8 23.8 0 0 1 348 2.08a26.46 26.46 0 0 1 3.46-1 40.7 40.7 0 0 1 5.05-.8q2.7-.26 5.67-.26a48.9 48.9 0 0 1 9.82.9 27.72 27.72 0 0 1 7.83 2.79 13.76 13.76 0 0 1 5 4.43 10.29 10.29 0 0 1 1.65 5.74 10.23 10.23 0 0 1-1.64 5.7 13.77 13.77 0 0 1-5 4.41 27.54 27.54 0 0 1-7.79 2.78 48.6 48.6 0 0 1-9.86.92 49.78 49.78 0 0 1-10-.91 27.59 27.59 0 0 1-7.71-2.78 13.76 13.76 0 0 1-5-4.38 10 10 0 0 1-1.63-5.62zm3.86-3.36a10.65 10.65 0 0 0-.51 3.36 9 9 0 0 0 1.44 5 11.68 11.68 0 0 0 4.23 3.72 23.39 23.39 0 0 0 6.63 2.34 43.9 43.9 0 0 0 8.77.79 42.71 42.71 0 0 0 8.66-.79 23.32 23.32 0 0 0 6.59-2.35 11.7 11.7 0 0 0 4.24-3.71 9.16 9.16 0 0 0 1.44-5.11 9.23 9.23 0 0 0-1.45-5.15A11.7 11.7 0 0 0 377.48 5a23.53 23.53 0 0 0-6.64-2.36 43.07 43.07 0 0 0-8.7-.79q-2.74 0-5.08.23a35 35 0 0 0-4.35.69 21.76 21.76 0 0 0-2.84.84 20.24 20.24 0 0 0-2.65 1.21 16.64 16.64 0 0 0-2.27 1.49 11.83 11.83 0 0 0-1.75 1.67 8.34 8.34 0 0 0-1.48 2.69zm9.22 3.2a6.89 6.89 0 0 0 .84 3.47 6.56 6.56 0 0 0 2.39 2.37 12.57 12.57 0 0 0 3.59 1.42 19.64 19.64 0 0 0 4.49.47 19.62 19.62 0 0 0 4.47-.47 12.24 12.24 0 0 0 3.55-1.41 6.39 6.39 0 0 0 2.36-2.38 7.21 7.21 0 0 0 .83-3.55 7.17 7.17 0 0 0-.81-3.5 6.17 6.17 0 0 0-2.28-2.32 11.87 11.87 0 0 0-3.51-1.36 23.49 23.49 0 0 0-9.24 0A12.09 12.09 0 0 0 354.06 8a6.26 6.26 0 0 0-2.32 2.34 7.17 7.17 0 0 0-.82 3.52zm-2.36 4a7.93 7.93 0 0 1-1-4 8.19 8.19 0 0 1 1-4 8.18 8.18 0 0 1 3-3A16.16 16.16 0 0 1 356.31 5a29.14 29.14 0 0 1 11.83 0 15.91 15.91 0 0 1 4.7 1.81 8.06 8.06 0 0 1 3 3 8.22 8.22 0 0 1 1 4 8.25 8.25 0 0 1-1 4.06 8.28 8.28 0 0 1-3.07 3.06 16.29 16.29 0 0 1-4.77 1.81 25.41 25.41 0 0 1-5.8.62 25.45 25.45 0 0 1-5.82-.62 16.61 16.61 0 0 1-4.74-1.87 8.49 8.49 0 0 1-3.1-3zm45.18 8.53V.43h11.8l.49.43 16 14V.43h12.13v26.83h-12.05l-.5-.43-15.74-13.64v14.07h-12.14v-.9zm3.35-24.14v23.22h5.42V7l3.1 2.6L424 25.45h6.88V2.23h-5.42v19.08L403.67 2.23z" transform="translate(-1.25)"/><path class="acls-7" d="M117.83 1.33h9.42v15.84a9.28 9.28 0 0 1-1 4.78 9.42 9.42 0 0 1-5 3.51 28.11 28.11 0 0 1-9.51 1.32q-6.93 0-10.66-2.07a6.64 6.64 0 0 1-3.76-6.08l8.9-.55a4.35 4.35 0 0 0 1.18 3 6.92 6.92 0 0 0 4.66 1.35 7.73 7.73 0 0 0 4.46-1q1.31-1 1.31-4V1.33zm277.59 25v-25h9.19L423.75 18V1.33h8.78v25H423L404.2 10v16.35zM339.52 14a9.71 9.71 0 0 1 2.13-6.42A14.91 14.91 0 0 1 346 4.14a23 23 0 0 1 6-2.25 46 46 0 0 1 10.08-1q10.34 0 16.54 3.43t6.21 9.54q0 6.07-6.16 9.49t-16.45 3.42q-10.44 0-16.59-3.4T339.52 14zm9.72-.17a7.07 7.07 0 0 0 3.67 6.44 17.92 17.92 0 0 0 9.32 2.19 17.74 17.74 0 0 0 9.27-2.18 7.13 7.13 0 0 0 3.62-6.53 7 7 0 0 0-3.52-6.42c-2.35-1.41-5.48-2.12-9.36-2.12a18.16 18.16 0 0 0-9.42 2.14 7 7 0 0 0-3.57 6.46zm-56.86 4.39l9.19-.48a5.94 5.94 0 0 0 3.36 3.64 16.73 16.73 0 0 0 6.84 1.16 17.56 17.56 0 0 0 6.87-1C320.2 20.8 321 20 321 19.08a1.79 1.79 0 0 0-1-1.51 10.27 10.27 0 0 0-3.4-1.08c-1.1-.21-3.63-.57-7.56-1.1q-7.59-1-10.65-2.48-4.31-2.07-4.31-5a4.68 4.68 0 0 1 2-3.58 14.1 14.1 0 0 1 5.84-2.54 42 42 0 0 1 9.2-.87Q320 .9 324.4 3t4.67 5.52l-9.44.22A4.33 4.33 0 0 0 317 5.93a16.12 16.12 0 0 0-6-.84 18.4 18.4 0 0 0-6.45.9c-1 .39-1.5.9-1.5 1.55s.47 1.1 1.4 1.52q1.78.8 8.68 1.67a76 76 0 0 1 10.19 1.8 13.38 13.38 0 0 1 5.17 2.55 5.07 5.07 0 0 1 1.86 4 5.3 5.3 0 0 1-2.23 4 14.74 14.74 0 0 1-6.32 2.79 47.67 47.67 0 0 1-10.18.91q-8.87 0-13.62-2.19t-5.67-6.39zm-47.77 8.14v-25h9.19L272.95 18V1.33h8.78v25h-9.48L253.39 10v16.35zm-50.32 0v-25h9.45v9.85h18.5V1.33h9.44v25h-9.44V15.41h-18.5v10.94zM138.46 14a9.7 9.7 0 0 1 2.13-6.42 14.89 14.89 0 0 1 4.36-3.43 23 23 0 0 1 6-2.25 46 46 0 0 1 10.08-1q10.34 0 16.54 3.43t6.21 9.54q0 6.07-6.16 9.49t-16.45 3.42q-10.44 0-16.59-3.4T138.46 14zm9.72-.17a7.07 7.07 0 0 0 3.67 6.44 17.91 17.91 0 0 0 9.32 2.19 17.73 17.73 0 0 0 9.27-2.18 7.13 7.13 0 0 0 3.62-6.53 7 7 0 0 0-3.52-6.42c-2.35-1.41-5.48-2.12-9.36-2.12a18.16 18.16 0 0 0-9.42 2.14 7 7 0 0 0-3.57 6.46zM1.5 100.88h101.93V99H1.5v1.9zm334.13 0h101.92V99H335.63v1.9zm-210.74 5.66a6.42 6.42 0 0 1-4.09-1.13 4.33 4.33 0 0 1-1.54-3.3h2.36a2.57 2.57 0 0 0 .32 1.07 2.38 2.38 0 0 0 .69.76 3 3 0 0 0 1 .45 4.57 4.57 0 0 0 1.22.15 4.93 4.93 0 0 0 1.15-.12 2.78 2.78 0 0 0 .87-.36 1.68 1.68 0 0 0 .55-.57 1.5 1.5 0 0 0 .19-.76 1.16 1.16 0 0 0-.18-.65 1.63 1.63 0 0 0-.54-.49 4.15 4.15 0 0 0-.89-.38c-.36-.11-.78-.22-1.26-.34q-1.05-.25-1.92-.5a7.09 7.09 0 0 1-1.51-.62 3.21 3.21 0 0 1-1-.88 2.76 2.76 0 0 1-.49-1.32v-.42a2.83 2.83 0 0 1 0-.44 3.14 3.14 0 0 1 .42-1.37 3.44 3.44 0 0 1 1-1.06 5 5 0 0 1 1.5-.7 6.94 6.94 0 0 1 1.91-.25 7.63 7.63 0 0 1 2.08.26 4.71 4.71 0 0 1 1.6.78 3.64 3.64 0 0 1 1 1.24 4 4 0 0 1 .42 1.67h-2.38q-.19-2-2.7-2a4.16 4.16 0 0 0-1.06.12 2.52 2.52 0 0 0-.78.33 1.53 1.53 0 0 0-.49.51 1.27 1.27 0 0 0-.17.66 1.15 1.15 0 0 0 .14.6 1.24 1.24 0 0 0 .48.43 4.5 4.5 0 0 0 .84.34c.34.11.75.21 1.25.32l1.33.3a10.71 10.71 0 0 1 1.23.36 6.87 6.87 0 0 1 1.06.48 3.09 3.09 0 0 1 .83.67 2.89 2.89 0 0 1 .54.93 3.69 3.69 0 0 1 .19 1.25 3.47 3.47 0 0 1-.39 1.64 3.69 3.69 0 0 1-1.07 1.24 5.07 5.07 0 0 1-1.63.78 7.39 7.39 0 0 1-2.05.27zm189.77 0a6.42 6.42 0 0 1-4.08-1.13 4.32 4.32 0 0 1-1.54-3.3h2.36a2.54 2.54 0 0 0 .32 1.07 2.36 2.36 0 0 0 .69.76 3 3 0 0 0 1 .45 4.58 4.58 0 0 0 1.22.15 4.93 4.93 0 0 0 1.15-.12 2.79 2.79 0 0 0 .87-.36 1.7 1.7 0 0 0 .55-.57 1.5 1.5 0 0 0 .19-.76 1.16 1.16 0 0 0-.18-.65 1.63 1.63 0 0 0-.54-.49 4.16 4.16 0 0 0-.89-.38c-.36-.11-.78-.22-1.26-.34-.7-.16-1.34-.33-1.92-.5a7.08 7.08 0 0 1-1.51-.62 3.23 3.23 0 0 1-1-.88 2.79 2.79 0 0 1-.49-1.32v-.42a2.89 2.89 0 0 1 0-.44 3.09 3.09 0 0 1 .42-1.37 3.41 3.41 0 0 1 1-1.06 4.94 4.94 0 0 1 1.5-.7 6.92 6.92 0 0 1 1.91-.25 7.63 7.63 0 0 1 2.08.26 4.73 4.73 0 0 1 1.61.78 3.66 3.66 0 0 1 1 1.24 4 4 0 0 1 .42 1.67h-2.38q-.19-2-2.7-2a4.15 4.15 0 0 0-1.06.12 2.51 2.51 0 0 0-.78.33 1.54 1.54 0 0 0-.49.51 1.27 1.27 0 0 0-.17.66 1.15 1.15 0 0 0 .15.6 1.24 1.24 0 0 0 .48.43 4.53 4.53 0 0 0 .84.34c.34.11.76.21 1.25.32l1.33.3a10.63 10.63 0 0 1 1.23.36 6.77 6.77 0 0 1 1.06.48 3.08 3.08 0 0 1 .83.67 2.88 2.88 0 0 1 .54.93 3.72 3.72 0 0 1 .19 1.25 3.45 3.45 0 0 1-.39 1.64 3.67 3.67 0 0 1-1.07 1.24 5.06 5.06 0 0 1-1.62.78 7.4 7.4 0 0 1-2.05.27zm-12.26-.22h-9.76V93.53h9.48v2.09h-7v3.13h6.56v2.09h-6.56v3.41h7.31v2.08zm-16.78 0h-8.3V93.53h2.45v10.67h5.85v2.13zm-16.23 0h-2.45V93.53h2.45v12.8zm-10.38 0h-2.29V101l.06-5-3.21 10.32h-2.23L248.09 96l.06 5v5.29h-2.31V93.53h3.54l3 10 3-10H259v12.8zm-25.55.22a6.42 6.42 0 0 1-4.09-1.13 4.33 4.33 0 0 1-1.54-3.3h2.36a2.55 2.55 0 0 0 .32 1.07 2.38 2.38 0 0 0 .68.76 3 3 0 0 0 1 .45 4.6 4.6 0 0 0 1.22.15 4.93 4.93 0 0 0 1.15-.12 2.79 2.79 0 0 0 .87-.36 1.68 1.68 0 0 0 .55-.57 1.5 1.5 0 0 0 .19-.76 1.15 1.15 0 0 0-.18-.65 1.63 1.63 0 0 0-.54-.49 4.19 4.19 0 0 0-.89-.38c-.36-.11-.78-.22-1.26-.34-.7-.16-1.34-.33-1.92-.5a7.07 7.07 0 0 1-1.51-.62 3.22 3.22 0 0 1-1-.88 2.78 2.78 0 0 1-.5-1.32v-.42a2.78 2.78 0 0 1 0-.44 3.13 3.13 0 0 1 .42-1.37 3.44 3.44 0 0 1 1-1.06 5 5 0 0 1 1.49-.7 6.93 6.93 0 0 1 1.91-.25 7.63 7.63 0 0 1 2.08.26 4.71 4.71 0 0 1 1.6.78 3.66 3.66 0 0 1 1 1.24 4 4 0 0 1 .42 1.67h-2.38c-.13-1.3-1-2-2.7-2a4.16 4.16 0 0 0-1.06.12 2.53 2.53 0 0 0-.78.33 1.55 1.55 0 0 0-.49.51 1.27 1.27 0 0 0-.17.66 1.15 1.15 0 0 0 .15.6 1.24 1.24 0 0 0 .47.43 4.54 4.54 0 0 0 .84.34c.34.11.76.21 1.25.32l1.33.3a10.61 10.61 0 0 1 1.23.36 6.77 6.77 0 0 1 1.06.48 3.09 3.09 0 0 1 .83.67 2.93 2.93 0 0 1 .54.93 3.71 3.71 0 0 1 .19 1.25 3.45 3.45 0 0 1-.39 1.64 3.66 3.66 0 0 1-1.07 1.24 5.07 5.07 0 0 1-1.62.78 7.39 7.39 0 0 1-2.05.27zm-21.77-13l-4.69 7.52v5.27h-2.44v-5.27l-4.68-7.53h2.71l2 3.52.6 1 .57 1 1.14-2 2-3.52zm-17.57 12.8h-8.3V93.53h2.45v10.67h5.85v2.13zm-25.37-12.8h4.9a13.72 13.72 0 0 1 1.44.07 5.3 5.3 0 0 1 1.2.25 3.49 3.49 0 0 1 1 .5 3.09 3.09 0 0 1 .74.81 3.36 3.36 0 0 1 .48 1 4.5 4.5 0 0 1 .15 1.18 4.64 4.64 0 0 1-.33 1.8 3.36 3.36 0 0 1-1 1.29 4.37 4.37 0 0 1-1.58.79 8.13 8.13 0 0 1-2.16.26h-2.39v4.79h-2.45V93.53zm2.45 6h2.61a3.86 3.86 0 0 0 1.06-.16 1.83 1.83 0 0 0 .71-.39 1.51 1.51 0 0 0 .4-.63 2.67 2.67 0 0 0 .13-.87 2.3 2.3 0 0 0-.07-.6 2.19 2.19 0 0 0-.21-.53 1.47 1.47 0 0 0-.34-.4 1.26 1.26 0 0 0-.42-.24 4.2 4.2 0 0 0-.93-.14h-2.94v4zm-10.2 6.79h-2.29V101l.06-5-3.21 10.32h-2.23L150 96l.06 5v5.29h-2.26V93.53h3.54l3 10 3-10H161v12.8zm-21.09 0h-2.45v-12.8h2.45v12.8z" transform="translate(-1.25)"/></symbol></svg>